G75*
G70*
%OFA0B0*%
%FSLAX24Y24*%
%IPPOS*%
%LPD*%
%AMOC8*
5,1,8,0,0,1.08239X$1,22.5*
%
%ADD10R,0.0800X0.0800*%
%ADD11C,0.0800*%
%ADD12R,0.0950X0.0950*%
%ADD13C,0.0950*%
%ADD14C,0.0740*%
%ADD15C,0.0120*%
%ADD16C,0.0100*%
D10*
X004890Y015710D03*
D11*
X004890Y014192D03*
D12*
X004890Y008140D03*
D13*
X004890Y005384D03*
X004890Y006762D03*
D14*
X010640Y007140D03*
X010640Y006140D03*
X010640Y005140D03*
X010640Y008140D03*
X010640Y009140D03*
X010640Y010140D03*
X010640Y011140D03*
X010640Y012140D03*
X010640Y013140D03*
X010640Y014140D03*
X010640Y015140D03*
X010640Y016140D03*
X016640Y016140D03*
X016640Y015140D03*
X016640Y014140D03*
X016640Y013140D03*
X016640Y012140D03*
X016640Y011140D03*
X016640Y010140D03*
X016640Y009140D03*
X016640Y008140D03*
X016640Y007140D03*
X016640Y006140D03*
X016640Y005140D03*
X019640Y008090D03*
X020640Y008190D03*
X021640Y008090D03*
X022640Y008190D03*
X023640Y008090D03*
X024640Y008190D03*
X025640Y008090D03*
X024640Y012590D03*
X025640Y012690D03*
X023640Y012690D03*
X022640Y012590D03*
X021640Y012690D03*
X020640Y012590D03*
X019640Y012690D03*
D15*
X019640Y012640D01*
X010140Y012640D01*
X011140Y013640D02*
X021640Y013640D01*
X022640Y012640D01*
X024640Y012640D02*
X022640Y014640D01*
X011140Y014640D01*
X016640Y012140D02*
X017140Y011640D01*
X024640Y011640D01*
X025640Y012640D01*
X021640Y008140D02*
X020640Y009140D01*
X016640Y009140D01*
X016640Y008140D02*
X019640Y008140D01*
X020140Y008640D02*
X020640Y008140D01*
X020140Y008640D02*
X011140Y008640D01*
X010640Y008140D01*
X008640Y008140D02*
X004890Y008140D01*
X004890Y006762D02*
X003640Y006790D01*
X002640Y007640D01*
X002640Y013140D01*
X003692Y014192D01*
X004890Y014192D01*
X008640Y008140D02*
X010640Y006140D01*
X014640Y006140D01*
X016640Y008140D01*
X021640Y008140D02*
X021640Y008090D01*
X010640Y005140D02*
X009140Y006640D01*
X005140Y006640D01*
X004890Y006762D01*
D16*
X010140Y012640D02*
X009640Y013140D01*
X009640Y015140D01*
X010640Y016140D01*
X011140Y014640D02*
X010640Y014140D01*
X011140Y013640D02*
X010640Y013140D01*
X019640Y008140D02*
X019640Y008090D01*
X020640Y008140D02*
X020640Y008190D01*
X023640Y008140D02*
X023640Y008090D01*
X025640Y008140D02*
X025640Y008090D01*
X024640Y012590D02*
X024640Y012640D01*
X025640Y012640D02*
X025640Y012690D01*
X022640Y012640D02*
X022640Y012590D01*
M02*
