%
M48
M72
T01C0.0400
T02C0.0472
T03C0.1300
%
T01
X10640Y5140
X10640Y6140
X10640Y7140
X10640Y8140
X10640Y9140
X10640Y10140
X10640Y11140
X10640Y12140
X10640Y13140
X10640Y14140
X10640Y15140
X10640Y16140
X16640Y16140
X16640Y15140
X16640Y14140
X16640Y13140
X16640Y12140
X16640Y11140
X16640Y10140
X16640Y9140
X16640Y8140
X16640Y7140
X16640Y6140
X16640Y5140
X19640Y8090
X20640Y8190
X21640Y8090
X22640Y8190
X23640Y8090
X24640Y8190
X25640Y8090
X24640Y12590
X25640Y12690
X23640Y12690
X22640Y12590
X21640Y12690
X20640Y12590
X19640Y12690
T02
X4890Y14192
X4890Y15710
X4890Y8140
X4890Y6762
X4890Y5384
T03
X2140Y2140
X2140Y19640
X29140Y19640
X29140Y2140
M30
