G75*
G70*
%OFA0B0*%
%FSLAX24Y24*%
%IPPOS*%
%LPD*%
%AMOC8*
5,1,8,0,0,1.08239X$1,22.5*
%
%ADD10R,0.0880X0.0880*%
%ADD11C,0.0880*%
%ADD12R,0.1030X0.1030*%
%ADD13C,0.1030*%
%ADD14C,0.0820*%
%ADD15C,0.1380*%
D10*
X004890Y015710D03*
D11*
X004890Y014192D03*
D12*
X004890Y008140D03*
D13*
X004890Y006762D03*
X004890Y005384D03*
D14*
X010640Y005140D03*
X010640Y006140D03*
X010640Y007140D03*
X010640Y008140D03*
X010640Y009140D03*
X010640Y010140D03*
X010640Y011140D03*
X010640Y012140D03*
X010640Y013140D03*
X010640Y014140D03*
X010640Y015140D03*
X010640Y016140D03*
X016640Y016140D03*
X016640Y015140D03*
X016640Y014140D03*
X016640Y013140D03*
X016640Y012140D03*
X016640Y011140D03*
X016640Y010140D03*
X016640Y009140D03*
X016640Y008140D03*
X016640Y007140D03*
X016640Y006140D03*
X016640Y005140D03*
X019640Y008090D03*
X020640Y008190D03*
X021640Y008090D03*
X022640Y008190D03*
X023640Y008090D03*
X024640Y008190D03*
X025640Y008090D03*
X024640Y012590D03*
X025640Y012690D03*
X023640Y012690D03*
X022640Y012590D03*
X021640Y012690D03*
X020640Y012590D03*
X019640Y012690D03*
D15*
X002140Y002140D03*
X002140Y019640D03*
X029140Y019640D03*
X029140Y002140D03*
M02*
