G75*
G70*
%OFA0B0*%
%FSLAX24Y24*%
%IPPOS*%
%LPD*%
%AMOC8*
5,1,8,0,0,1.08239X$1,22.5*
%
%ADD10R,0.0800X0.0800*%
%ADD11C,0.0800*%
%ADD12R,0.0950X0.0950*%
%ADD13C,0.0950*%
%ADD14C,0.0740*%
%ADD15C,0.0000*%
%ADD16C,0.0120*%
%ADD17C,0.0100*%
D10*
X004890Y015710D03*
D11*
X004890Y014192D03*
D12*
X004890Y008140D03*
D13*
X004890Y006762D03*
X004890Y005384D03*
D14*
X010640Y005140D03*
X010640Y006140D03*
X010640Y007140D03*
X010640Y008140D03*
X010640Y009140D03*
X010640Y010140D03*
X010640Y011140D03*
X010640Y012140D03*
X010640Y013140D03*
X010640Y014140D03*
X010640Y015140D03*
X010640Y016140D03*
X016640Y016140D03*
X016640Y015140D03*
X016640Y014140D03*
X016640Y013140D03*
X016640Y012140D03*
X016640Y011140D03*
X016640Y010140D03*
X016640Y009140D03*
X016640Y008140D03*
X016640Y007140D03*
X016640Y006140D03*
X016640Y005140D03*
X019640Y008090D03*
X020640Y008190D03*
X021640Y008090D03*
X022640Y008190D03*
X023640Y008090D03*
X024640Y008190D03*
X025640Y008090D03*
X024640Y012590D03*
X025640Y012690D03*
X023640Y012690D03*
X022640Y012590D03*
X021640Y012690D03*
X020640Y012590D03*
X019640Y012690D03*
D15*
X001490Y002140D02*
X001492Y002190D01*
X001498Y002240D01*
X001508Y002290D01*
X001521Y002338D01*
X001538Y002386D01*
X001559Y002432D01*
X001583Y002476D01*
X001611Y002518D01*
X001642Y002558D01*
X001676Y002595D01*
X001713Y002630D01*
X001752Y002661D01*
X001793Y002690D01*
X001837Y002715D01*
X001883Y002737D01*
X001930Y002755D01*
X001978Y002769D01*
X002027Y002780D01*
X002077Y002787D01*
X002127Y002790D01*
X002178Y002789D01*
X002228Y002784D01*
X002278Y002775D01*
X002326Y002763D01*
X002374Y002746D01*
X002420Y002726D01*
X002465Y002703D01*
X002508Y002676D01*
X002548Y002646D01*
X002586Y002613D01*
X002621Y002577D01*
X002654Y002538D01*
X002683Y002497D01*
X002709Y002454D01*
X002732Y002409D01*
X002751Y002362D01*
X002766Y002314D01*
X002778Y002265D01*
X002786Y002215D01*
X002790Y002165D01*
X002790Y002115D01*
X002786Y002065D01*
X002778Y002015D01*
X002766Y001966D01*
X002751Y001918D01*
X002732Y001871D01*
X002709Y001826D01*
X002683Y001783D01*
X002654Y001742D01*
X002621Y001703D01*
X002586Y001667D01*
X002548Y001634D01*
X002508Y001604D01*
X002465Y001577D01*
X002420Y001554D01*
X002374Y001534D01*
X002326Y001517D01*
X002278Y001505D01*
X002228Y001496D01*
X002178Y001491D01*
X002127Y001490D01*
X002077Y001493D01*
X002027Y001500D01*
X001978Y001511D01*
X001930Y001525D01*
X001883Y001543D01*
X001837Y001565D01*
X001793Y001590D01*
X001752Y001619D01*
X001713Y001650D01*
X001676Y001685D01*
X001642Y001722D01*
X001611Y001762D01*
X001583Y001804D01*
X001559Y001848D01*
X001538Y001894D01*
X001521Y001942D01*
X001508Y001990D01*
X001498Y002040D01*
X001492Y002090D01*
X001490Y002140D01*
X001490Y019640D02*
X001492Y019690D01*
X001498Y019740D01*
X001508Y019790D01*
X001521Y019838D01*
X001538Y019886D01*
X001559Y019932D01*
X001583Y019976D01*
X001611Y020018D01*
X001642Y020058D01*
X001676Y020095D01*
X001713Y020130D01*
X001752Y020161D01*
X001793Y020190D01*
X001837Y020215D01*
X001883Y020237D01*
X001930Y020255D01*
X001978Y020269D01*
X002027Y020280D01*
X002077Y020287D01*
X002127Y020290D01*
X002178Y020289D01*
X002228Y020284D01*
X002278Y020275D01*
X002326Y020263D01*
X002374Y020246D01*
X002420Y020226D01*
X002465Y020203D01*
X002508Y020176D01*
X002548Y020146D01*
X002586Y020113D01*
X002621Y020077D01*
X002654Y020038D01*
X002683Y019997D01*
X002709Y019954D01*
X002732Y019909D01*
X002751Y019862D01*
X002766Y019814D01*
X002778Y019765D01*
X002786Y019715D01*
X002790Y019665D01*
X002790Y019615D01*
X002786Y019565D01*
X002778Y019515D01*
X002766Y019466D01*
X002751Y019418D01*
X002732Y019371D01*
X002709Y019326D01*
X002683Y019283D01*
X002654Y019242D01*
X002621Y019203D01*
X002586Y019167D01*
X002548Y019134D01*
X002508Y019104D01*
X002465Y019077D01*
X002420Y019054D01*
X002374Y019034D01*
X002326Y019017D01*
X002278Y019005D01*
X002228Y018996D01*
X002178Y018991D01*
X002127Y018990D01*
X002077Y018993D01*
X002027Y019000D01*
X001978Y019011D01*
X001930Y019025D01*
X001883Y019043D01*
X001837Y019065D01*
X001793Y019090D01*
X001752Y019119D01*
X001713Y019150D01*
X001676Y019185D01*
X001642Y019222D01*
X001611Y019262D01*
X001583Y019304D01*
X001559Y019348D01*
X001538Y019394D01*
X001521Y019442D01*
X001508Y019490D01*
X001498Y019540D01*
X001492Y019590D01*
X001490Y019640D01*
X028490Y019640D02*
X028492Y019690D01*
X028498Y019740D01*
X028508Y019790D01*
X028521Y019838D01*
X028538Y019886D01*
X028559Y019932D01*
X028583Y019976D01*
X028611Y020018D01*
X028642Y020058D01*
X028676Y020095D01*
X028713Y020130D01*
X028752Y020161D01*
X028793Y020190D01*
X028837Y020215D01*
X028883Y020237D01*
X028930Y020255D01*
X028978Y020269D01*
X029027Y020280D01*
X029077Y020287D01*
X029127Y020290D01*
X029178Y020289D01*
X029228Y020284D01*
X029278Y020275D01*
X029326Y020263D01*
X029374Y020246D01*
X029420Y020226D01*
X029465Y020203D01*
X029508Y020176D01*
X029548Y020146D01*
X029586Y020113D01*
X029621Y020077D01*
X029654Y020038D01*
X029683Y019997D01*
X029709Y019954D01*
X029732Y019909D01*
X029751Y019862D01*
X029766Y019814D01*
X029778Y019765D01*
X029786Y019715D01*
X029790Y019665D01*
X029790Y019615D01*
X029786Y019565D01*
X029778Y019515D01*
X029766Y019466D01*
X029751Y019418D01*
X029732Y019371D01*
X029709Y019326D01*
X029683Y019283D01*
X029654Y019242D01*
X029621Y019203D01*
X029586Y019167D01*
X029548Y019134D01*
X029508Y019104D01*
X029465Y019077D01*
X029420Y019054D01*
X029374Y019034D01*
X029326Y019017D01*
X029278Y019005D01*
X029228Y018996D01*
X029178Y018991D01*
X029127Y018990D01*
X029077Y018993D01*
X029027Y019000D01*
X028978Y019011D01*
X028930Y019025D01*
X028883Y019043D01*
X028837Y019065D01*
X028793Y019090D01*
X028752Y019119D01*
X028713Y019150D01*
X028676Y019185D01*
X028642Y019222D01*
X028611Y019262D01*
X028583Y019304D01*
X028559Y019348D01*
X028538Y019394D01*
X028521Y019442D01*
X028508Y019490D01*
X028498Y019540D01*
X028492Y019590D01*
X028490Y019640D01*
X028490Y002140D02*
X028492Y002190D01*
X028498Y002240D01*
X028508Y002290D01*
X028521Y002338D01*
X028538Y002386D01*
X028559Y002432D01*
X028583Y002476D01*
X028611Y002518D01*
X028642Y002558D01*
X028676Y002595D01*
X028713Y002630D01*
X028752Y002661D01*
X028793Y002690D01*
X028837Y002715D01*
X028883Y002737D01*
X028930Y002755D01*
X028978Y002769D01*
X029027Y002780D01*
X029077Y002787D01*
X029127Y002790D01*
X029178Y002789D01*
X029228Y002784D01*
X029278Y002775D01*
X029326Y002763D01*
X029374Y002746D01*
X029420Y002726D01*
X029465Y002703D01*
X029508Y002676D01*
X029548Y002646D01*
X029586Y002613D01*
X029621Y002577D01*
X029654Y002538D01*
X029683Y002497D01*
X029709Y002454D01*
X029732Y002409D01*
X029751Y002362D01*
X029766Y002314D01*
X029778Y002265D01*
X029786Y002215D01*
X029790Y002165D01*
X029790Y002115D01*
X029786Y002065D01*
X029778Y002015D01*
X029766Y001966D01*
X029751Y001918D01*
X029732Y001871D01*
X029709Y001826D01*
X029683Y001783D01*
X029654Y001742D01*
X029621Y001703D01*
X029586Y001667D01*
X029548Y001634D01*
X029508Y001604D01*
X029465Y001577D01*
X029420Y001554D01*
X029374Y001534D01*
X029326Y001517D01*
X029278Y001505D01*
X029228Y001496D01*
X029178Y001491D01*
X029127Y001490D01*
X029077Y001493D01*
X029027Y001500D01*
X028978Y001511D01*
X028930Y001525D01*
X028883Y001543D01*
X028837Y001565D01*
X028793Y001590D01*
X028752Y001619D01*
X028713Y001650D01*
X028676Y001685D01*
X028642Y001722D01*
X028611Y001762D01*
X028583Y001804D01*
X028559Y001848D01*
X028538Y001894D01*
X028521Y001942D01*
X028508Y001990D01*
X028498Y002040D01*
X028492Y002090D01*
X028490Y002140D01*
D16*
X022640Y006140D02*
X024640Y008140D01*
X024640Y008190D01*
X025140Y008640D02*
X025140Y013640D01*
X023640Y015140D01*
X016640Y015140D01*
X020640Y012640D02*
X020640Y012590D01*
X020640Y010140D01*
X020140Y009640D01*
X019140Y009640D01*
X019140Y006640D01*
X019640Y007140D02*
X019640Y008090D01*
X019640Y008140D01*
X020640Y008140D02*
X020640Y008190D01*
X020640Y008140D02*
X021140Y008640D01*
X021140Y012140D01*
X021640Y012640D01*
X022640Y012590D02*
X022640Y008190D01*
X022640Y008140D01*
X023140Y007640D02*
X022140Y006640D01*
X023140Y007640D02*
X023140Y012140D01*
X023640Y012640D01*
X024640Y012590D02*
X024640Y009140D01*
X023640Y008140D01*
X023640Y008090D01*
X025140Y008640D02*
X025640Y008140D01*
X025640Y008090D01*
X019140Y009640D02*
X016140Y009640D01*
X010640Y015140D01*
X007140Y014640D02*
X007140Y009140D01*
X006140Y008140D01*
X004890Y008140D01*
X005140Y005640D02*
X004890Y005384D01*
X005140Y005640D02*
X006140Y005640D01*
X010640Y010140D01*
X007140Y014640D02*
X006070Y015710D01*
X004890Y015710D01*
D17*
X019140Y006640D02*
X019640Y006140D01*
X022640Y006140D01*
X022140Y006640D02*
X020140Y006640D01*
X019640Y007140D01*
X022640Y012590D02*
X022640Y012640D01*
X021640Y012640D02*
X021640Y012690D01*
X019640Y012640D02*
X019640Y012690D01*
X023640Y012640D02*
X023640Y012690D01*
X024640Y012640D02*
X024640Y012590D01*
X025640Y012640D02*
X025640Y012690D01*
M02*
